<svg xmlns="http://www.w3.org/2000/svg"><symbol id="hamburger" viewBox="0 0 24 24"><path d="M12 2A10 10 0 1 1 2 12 10 10 0 0 1 12 2zm0-2a12 12 0 1 0 12 12A12 12 0 0 0 12 0zm6 17H6v-2h12zm0-4H6v-2h12zm0-4H6V7h12z"/></symbol><symbol id="facebook" viewBox="0 0 24 24"><path d="M12 2A10 10 0 1 1 2 12 10 10 0 0 1 12 2zm0-2a12 12 0 1 0 12 12A12 12 0 0 0 12 0zm-2 10H8v2h2v6h3v-6h1.8l.2-2h-2v-.8c0-.5.1-.7.6-.7H15V6h-2.4c-1.8 0-2.6.8-2.6 2.3z"/></symbol><symbol id="instagram" viewBox="0 0 24 24"><path d="M12 2A10 10 0 1 1 2 12 10 10 0 0 1 12 2zm0-2a12 12 0 1 0 12 12A12 12 0 0 0 12 0zm4.6 6H7.4A1.4 1.4 0 0 0 6 7.4v9.2A1.4 1.4 0 0 0 7.4 18h9.2a1.4 1.4 0 0 0 1.4-1.4V7.4A1.4 1.4 0 0 0 16.6 6zM12 9.7A2.3 2.3 0 1 1 9.7 12 2.3 2.3 0 0 1 12 9.7zm4.5 6.3a.5.5 0 0 1-.5.5H8a.5.5 0 0 1-.5-.5v-5h.9c0 .2-.1.3-.1.5v.5a3.7 3.7 0 0 0 7.4 0v-.5c0-.2-.1-.3-.1-.5h1v5zm0-7a.5.5 0 0 1-.5.5h-1a.5.5 0 0 1-.5-.5V8a.5.5 0 0 1 .5-.5h1a.5.5 0 0 1 .5.5z"/></symbol><symbol id="shopping-cart" viewBox="0 0 24 24"><path d="M24 3.5l-.7 2h-1.9l-3.5 12H4.6L0 6.5h16.8l-.6 2H3l2.9 7h10.4l3.4-12zm-15.5 15A1.5 1.5 0 0 0 7 20a1.6 1.6 0 0 0 1.5 1.5A1.6 1.6 0 0 0 10 20a1.5 1.5 0 0 0-1.5-1.5zm5 0A1.5 1.5 0 0 0 12 20a1.6 1.6 0 0 0 1.5 1.5A1.6 1.6 0 0 0 15 20a1.5 1.5 0 0 0-1.5-1.5z"/></symbol><symbol id="toggle-nav-close" viewBox="0 0 24 24"><path d="M12 2A10 10 0 1 1 2 12 10 10 0 0 1 12 2zm0-2a12 12 0 1 0 12 12A12 12 0 0 0 12 0zm6 16.5L13.4 12 18 7.4 16.5 6 12 10.6 7.4 6 6 7.5l4.6 4.6L6 16.6 7.5 18l4.6-4.6 4.6 4.6a17.4 17.4 0 0 1 1.3-1.5z"/></symbol><symbol id="toggle-nav-open" viewBox="0 0 24 22"><path d="M21 12v10H0V3h12v2H2v15h17v-8zm3-12H13l4 4-6.9 7.1 2.8 2.8 7-7.1L24 11z"/></symbol><symbol id="twitter" viewBox="0 0 24 24"><path d="M12 2A10 10 0 1 1 2 12 10 10 0 0 1 12 2zm0-2a12 12 0 1 0 12 12A12 12 0 0 0 12 0zm6.5 8.8l-1.4.4a2.6 2.6 0 0 0 1.1-1.4 4.4 4.4 0 0 1-1.6.6 2.3 2.3 0 0 0-1.8-.8 2.4 2.4 0 0 0-2.4 3A7.1 7.1 0 0 1 7.3 8a2.7 2.7 0 0 0 .8 3.4 2 2 0 0 1-1.1-.3 2.5 2.5 0 0 0 2 2.4H7.9a2.4 2.4 0 0 0 2.3 1.7 4.7 4.7 0 0 1-3.6 1 7 7 0 0 0 3.8 1.1 6.9 6.9 0 0 0 7-7.3 4.3 4.3 0 0 0 1.1-1.2z"/></symbol></svg>